<svg width="111" height="37" viewBox="0 0 111 37" fill="none" xmlns="http://www.w3.org/2000/svg">
<circle cx="18.5" cy="18.5" r="18.5" fill="#73C2E4"/>
<path d="M9.04294 13.0682C9.58857 13.3559 17.1678 17.4878 17.4506 17.6366C17.7333 17.7854 18.021 17.8548 18.4674 17.8548C18.9138 17.8548 19.2015 17.7854 19.4843 17.6366C19.767 17.4878 27.3462 13.3559 27.8919 13.0682C28.0952 12.964 28.4375 12.7756 28.5119 12.5623C28.6409 12.1853 28.502 12.0414 27.9514 12.0414H18.4674H8.98342C8.43283 12.0414 8.29394 12.1903 8.42291 12.5623C8.49731 12.7805 8.83957 12.964 9.04294 13.0682Z" fill="white"/>
<path d="M28.3235 13.2914C27.9168 13.4997 24.266 16.0989 21.8504 17.6614L25.9277 22.2496C26.0269 22.3488 26.0716 22.4679 26.017 22.5274C25.9575 22.582 25.8285 22.5522 25.7243 22.4579L20.8335 18.331C20.0945 18.8072 19.5736 19.1346 19.4843 19.1842C19.1024 19.3776 18.8346 19.4024 18.4675 19.4024C18.1004 19.4024 17.8326 19.3776 17.4506 19.1842C17.3564 19.1346 16.8405 18.8072 16.1015 18.331L11.2107 22.4579C11.1115 22.5572 10.9775 22.5869 10.918 22.5274C10.8585 22.4728 10.9031 22.3488 11.0023 22.2496L15.0747 17.6614C12.6591 16.0989 8.96863 13.4997 8.56189 13.2914C8.12539 13.0682 8.10059 13.3311 8.10059 13.5345C8.10059 13.7378 8.10059 23.703 8.10059 23.703C8.10059 24.1643 8.78014 24.7397 9.26624 24.7397H18.4675H27.6687C28.1549 24.7397 28.7352 24.1593 28.7352 23.703C28.7352 23.703 28.7352 13.7329 28.7352 13.5345C28.7352 13.3261 28.765 13.0682 28.3235 13.2914Z" fill="white"/>
<path d="M43.5195 14.9961C44.0664 15.0117 44.5195 15.0234 44.8789 15.0312C45.2461 15.0312 45.543 15.0312 45.7695 15.0312H46.3906H49.8828C49.8984 15.1875 49.9102 15.3398 49.918 15.4883C49.9336 15.6289 49.9414 15.7539 49.9414 15.8633C49.9414 15.9961 49.9375 16.1172 49.9297 16.2266C49.9219 16.3359 49.9102 16.4531 49.8945 16.5781C49.8789 16.6875 49.8633 16.8047 49.8477 16.9297C49.832 17.0547 49.8047 17.1836 49.7656 17.3164C49.6562 16.8945 49.5078 16.5742 49.3203 16.3555C49.1406 16.1367 48.957 15.9766 48.7695 15.875C48.5508 15.7578 48.3203 15.6953 48.0781 15.6875C47.7578 15.7031 47.5078 15.7305 47.3281 15.7695C47.1484 15.8086 47.0078 15.8633 46.9062 15.9336C46.8047 16.0039 46.7266 16.0859 46.6719 16.1797C46.625 16.2656 46.5742 16.3633 46.5195 16.4727C46.4727 16.5664 46.4297 16.7109 46.3906 16.9062C46.3516 17.0703 46.3125 17.293 46.2734 17.5742C46.2422 17.8555 46.207 18.2188 46.168 18.6641C46.3789 18.6016 46.5469 18.543 46.6719 18.4883C46.8047 18.4336 46.9102 18.3867 46.9883 18.3477C47.0742 18.3008 47.1367 18.2578 47.1758 18.2188C47.207 18.1719 47.2539 18.0859 47.3164 17.9609C47.3633 17.8516 47.4258 17.7031 47.5039 17.5156C47.5898 17.3281 47.6914 17.0703 47.8086 16.7422C47.8242 17.1016 47.832 17.4023 47.832 17.6445C47.832 17.8789 47.8359 18.0703 47.8438 18.2188C47.8438 18.3906 47.8477 18.5273 47.8555 18.6289V19.0742C47.8555 19.2383 47.8555 19.4609 47.8555 19.7422C47.8633 20.0156 47.875 20.3633 47.8906 20.7852C47.7969 20.4961 47.7109 20.2695 47.6328 20.1055C47.5625 19.9336 47.5 19.8047 47.4453 19.7188C47.3828 19.6172 47.3281 19.5469 47.2812 19.5078C47.2266 19.4922 47.1523 19.4766 47.0586 19.4609C46.9727 19.4531 46.8633 19.4492 46.7305 19.4492C46.6055 19.4492 46.4453 19.4688 46.25 19.5078C46.2266 19.9375 46.2227 20.2852 46.2383 20.5508C46.2617 20.8086 46.293 21.0078 46.332 21.1484C46.3711 21.3125 46.418 21.4297 46.4727 21.5C46.543 21.5703 46.6836 21.6289 46.8945 21.6758C47.1055 21.7148 47.3438 21.7305 47.6094 21.7227C47.8828 21.707 48.1602 21.6602 48.4414 21.582C48.7227 21.5039 48.9727 21.375 49.1914 21.1953C49.3555 21.0469 49.5312 20.8594 49.7188 20.6328C49.875 20.4375 50.0469 20.1914 50.2344 19.8945C50.4297 19.5977 50.6211 19.2383 50.8086 18.8164C50.7773 19.168 50.7539 19.4609 50.7383 19.6953C50.7305 19.9219 50.7188 20.1055 50.7031 20.2461C50.6875 20.4102 50.6758 20.5352 50.668 20.6211C50.668 20.7148 50.6562 20.8477 50.6328 21.0195C50.6172 21.168 50.5898 21.3711 50.5508 21.6289C50.5195 21.8789 50.4766 22.1992 50.4219 22.5898C50.0547 22.5977 49.707 22.6055 49.3789 22.6133C49.0508 22.6133 48.7617 22.6172 48.5117 22.625C48.2148 22.6328 47.9414 22.6406 47.6914 22.6484C47.4336 22.6484 47.1484 22.6602 46.8359 22.6836C46.5625 22.6992 46.2383 22.7227 45.8633 22.7539C45.4961 22.7852 45.0898 22.8281 44.6445 22.8828C44.6836 22.3516 44.7109 21.8516 44.7266 21.3828C44.75 20.9062 44.7656 20.4883 44.7734 20.1289C44.7812 19.707 44.7812 19.3164 44.7734 18.957C44.8125 18.0586 44.7969 17.332 44.7266 16.7773C44.6562 16.2227 44.5742 15.8672 44.4805 15.7109C44.4336 15.6562 44.3672 15.5898 44.2812 15.5117C44.2109 15.4492 44.1133 15.375 43.9883 15.2891C43.8633 15.2031 43.707 15.1055 43.5195 14.9961ZM51.2891 17.4453C51.4688 17.4297 51.6211 17.4141 51.7461 17.3984C51.8789 17.3828 51.9883 17.3672 52.0742 17.3516C52.1758 17.3359 52.2617 17.3203 52.332 17.3047C52.4023 17.2969 52.4805 17.2812 52.5664 17.2578C52.6445 17.2422 52.7305 17.2227 52.8242 17.1992C52.9258 17.168 53.0352 17.1328 53.1523 17.0938L53.082 18.582C53.2539 18.3086 53.4531 18.1016 53.6797 17.9609C53.9062 17.8125 54.1211 17.7031 54.3242 17.6328C54.5664 17.5469 54.8086 17.4961 55.0508 17.4805C55.3008 17.4883 55.5312 17.5273 55.7422 17.5977C55.9219 17.6602 56.1016 17.7578 56.2812 17.8906C56.4688 18.0234 56.6133 18.2188 56.7148 18.4766C56.9805 18.2031 57.2422 17.9922 57.5 17.8438C57.7656 17.6875 58 17.5703 58.2031 17.4922C58.4453 17.4062 58.6719 17.3555 58.8828 17.3398C59.1641 17.332 59.4219 17.3789 59.6562 17.4805C59.8984 17.582 60.1094 17.7109 60.2891 17.8672C60.4688 18.0156 60.6133 18.1758 60.7227 18.3477C60.832 18.5117 60.8945 18.6562 60.9102 18.7812C60.9336 18.9531 60.9219 19.1758 60.875 19.4492C60.8281 19.7148 60.7734 19.9883 60.7109 20.2695C60.6484 20.543 60.5898 20.7969 60.5352 21.0312C60.4883 21.2578 60.4688 21.418 60.4766 21.5117C60.5 21.5898 60.5547 21.6836 60.6406 21.793C60.7188 21.8867 60.832 22.0039 60.9805 22.1445C61.1367 22.2773 61.3594 22.4336 61.6484 22.6133C61.3984 22.6055 61.1758 22.5977 60.9805 22.5898C60.793 22.582 60.6328 22.5703 60.5 22.5547C60.3438 22.5391 60.207 22.5273 60.0898 22.5195C59.9961 22.5195 59.8828 22.5117 59.75 22.4961C59.6406 22.4883 59.4961 22.4766 59.3164 22.4609C59.1445 22.4453 58.9453 22.4297 58.7188 22.4141C58.8047 22.3906 58.875 22.3477 58.9297 22.2852C58.9844 22.2148 59.0312 22.1484 59.0703 22.0859C59.1094 22.0078 59.1406 21.9219 59.1641 21.8281C59.1797 21.75 59.1953 21.625 59.2109 21.4531C59.2266 21.2812 59.2383 21.0859 59.2461 20.8672C59.2617 20.6484 59.2695 20.418 59.2695 20.1758C59.2773 19.9336 59.2773 19.7031 59.2695 19.4844C59.2617 19.2656 59.2461 19.0664 59.2227 18.8867C59.1992 18.707 59.168 18.5703 59.1289 18.4766C59.0977 18.4062 59.043 18.3516 58.9648 18.3125C58.8867 18.2656 58.7969 18.2383 58.6953 18.2305C58.5938 18.2148 58.4922 18.2188 58.3906 18.2422C58.2891 18.2578 58.1992 18.2891 58.1211 18.3359C58.0508 18.3906 57.957 18.4648 57.8398 18.5586C57.7383 18.6445 57.6055 18.7617 57.4414 18.9102C57.2773 19.0586 57.0703 19.2461 56.8203 19.4727C56.7969 19.9648 56.7773 20.3633 56.7617 20.668C56.7539 20.9648 56.7461 21.1914 56.7383 21.3477C56.7305 21.5352 56.7266 21.6641 56.7266 21.7344C56.7188 21.7969 56.7227 21.8555 56.7383 21.9102C56.7539 22.0273 56.8008 22.1367 56.8789 22.2383C56.7852 22.2148 56.6836 22.1992 56.5742 22.1914C56.4727 22.1836 56.3789 22.1758 56.293 22.168C56.1914 22.1602 56.0898 22.1562 55.9883 22.1562C55.9023 22.1562 55.8086 22.1602 55.707 22.168C55.6211 22.1758 55.5156 22.1875 55.3906 22.2031C55.2656 22.2109 55.1289 22.2227 54.9805 22.2383C55.043 22.1992 55.0938 22.1523 55.1328 22.0977C55.1719 22.043 55.2031 21.9922 55.2266 21.9453C55.2578 21.8906 55.2812 21.8398 55.2969 21.793C55.3047 21.7461 55.3203 21.6328 55.3438 21.4531C55.3672 21.2656 55.3828 21.0469 55.3906 20.7969C55.3984 20.5469 55.3984 20.2852 55.3906 20.0117C55.3828 19.7305 55.3555 19.4766 55.3086 19.25C55.2617 19.0156 55.1875 18.8242 55.0859 18.6758C54.9922 18.5273 54.8672 18.4609 54.7109 18.4766C54.5234 18.4922 54.332 18.5391 54.1367 18.6172C53.9727 18.6797 53.7969 18.7734 53.6094 18.8984C53.4219 19.0234 53.2461 19.1914 53.082 19.4023C53.0508 19.9883 53.0312 20.4531 53.0234 20.7969C53.0234 21.1406 53.0273 21.4023 53.0352 21.582C53.043 21.793 53.0508 21.9375 53.0586 22.0156C53.0664 22.0703 53.0859 22.125 53.1172 22.1797C53.1406 22.2266 53.168 22.2812 53.1992 22.3438C53.2383 22.4062 53.2812 22.4648 53.3281 22.5195L51.4648 22.4258C51.5273 22.3945 51.582 22.3555 51.6289 22.3086C51.6758 22.2539 51.7148 22.1992 51.7461 22.1445C51.7773 22.082 51.8086 22.0195 51.8398 21.957C51.8633 21.9023 51.8828 21.7734 51.8984 21.5703C51.9219 21.3672 51.9414 21.1289 51.957 20.8555C51.9727 20.5742 51.9844 20.2812 51.9922 19.9766C52.0078 19.6641 52.0156 19.375 52.0156 19.1094C52.0234 18.8359 52.0273 18.6055 52.0273 18.418C52.0273 18.2227 52.0234 18.1055 52.0156 18.0664C51.9922 17.9883 51.9492 17.9062 51.8867 17.8203C51.832 17.7578 51.7578 17.6914 51.6641 17.6211C51.5703 17.543 51.4453 17.4844 51.2891 17.4453ZM62.5859 18.2539C62.625 18.207 62.6484 18.1211 62.6562 17.9961C62.6719 17.8633 62.7031 17.7148 62.75 17.5508C62.8047 17.3867 62.8945 17.2148 63.0195 17.0352C63.1445 16.8555 63.3477 16.6875 63.6289 16.5312C63.9023 16.375 64.168 16.2812 64.4258 16.25C64.6836 16.2188 64.9297 16.2305 65.1641 16.2852C65.3984 16.3398 65.6172 16.4258 65.8203 16.543C66.0312 16.6602 66.2227 16.7891 66.3945 16.9297C66.5117 17.0234 66.6055 17.1602 66.6758 17.3398C66.7461 17.5117 66.8008 17.707 66.8398 17.9258C66.8789 18.1445 66.9062 18.375 66.9219 18.6172C66.9453 18.8516 66.9609 19.082 66.9688 19.3086C66.9766 19.5273 66.9805 19.7305 66.9805 19.918C66.9883 20.0977 67.0039 20.2461 67.0273 20.3633C67.0586 20.5352 67.1133 20.6836 67.1914 20.8086C67.2695 20.9258 67.3555 21.0273 67.4492 21.1133C67.543 21.1914 67.6367 21.2539 67.7305 21.3008C67.8242 21.3477 67.9062 21.3828 67.9766 21.4062C68.0234 21.4297 68.0664 21.4453 68.1055 21.4531C68.1836 21.4844 68.2383 21.4844 68.2695 21.4531C68.2227 21.5625 68.1797 21.6562 68.1406 21.7344C68.1016 21.8125 68.0703 21.8789 68.0469 21.9336C68.0156 21.9961 67.9883 22.0469 67.9648 22.0859C67.9414 22.1328 67.9141 22.1758 67.8828 22.2148C67.8594 22.2539 67.8281 22.2969 67.7891 22.3438C67.75 22.3906 67.7109 22.4414 67.6719 22.4961C67.5703 22.457 67.4727 22.4102 67.3789 22.3555C67.293 22.3008 67.2148 22.25 67.1445 22.2031C67.0586 22.1484 66.9805 22.0938 66.9102 22.0391C66.8398 21.9844 66.7734 21.9219 66.7109 21.8516C66.6562 21.7891 66.5977 21.7227 66.5352 21.6523C66.4805 21.582 66.4336 21.5039 66.3945 21.418C66.3477 21.5195 66.2344 21.6641 66.0547 21.8516C65.8828 22.0391 65.6562 22.2109 65.375 22.3672C65.0938 22.5156 64.7656 22.6211 64.3906 22.6836C64.0234 22.7461 63.6172 22.7031 63.1719 22.5547C62.9766 22.4922 62.793 22.4023 62.6211 22.2852C62.4492 22.1602 62.3008 22.0117 62.1758 21.8398C62.0586 21.668 61.9727 21.4727 61.918 21.2539C61.8711 21.0273 61.875 20.7773 61.9297 20.5039C61.9844 20.2305 62.082 20 62.2227 19.8125C62.3633 19.625 62.5312 19.4727 62.7266 19.3555C62.9219 19.2383 63.1406 19.1484 63.3828 19.0859C63.625 19.0234 63.875 18.9805 64.1328 18.957C64.3359 18.9492 64.5391 18.9609 64.7422 18.9922C64.9141 19.0234 65.0938 19.082 65.2812 19.168C65.4688 19.2461 65.6289 19.3672 65.7617 19.5312C65.7539 19.1172 65.7383 18.7891 65.7148 18.5469C65.6992 18.2969 65.6836 18.1055 65.668 17.9727C65.6367 17.8164 65.6094 17.707 65.5859 17.6445C65.5469 17.5898 65.5039 17.5273 65.457 17.457C65.418 17.3867 65.3672 17.3242 65.3047 17.2695C65.2422 17.207 65.1641 17.1562 65.0703 17.1172C64.9766 17.0781 64.8672 17.0625 64.7422 17.0703C64.6094 17.0781 64.5039 17.1133 64.4258 17.1758C64.3477 17.2383 64.2852 17.3125 64.2383 17.3984C64.1992 17.4766 64.1758 17.5625 64.168 17.6562C64.1602 17.75 64.1641 17.832 64.1797 17.9023C64.1953 17.9492 64.2188 18 64.25 18.0547C64.2812 18.1016 64.3242 18.1523 64.3789 18.207C64.4336 18.2617 64.5078 18.3086 64.6016 18.3477C64.4219 18.3711 64.2617 18.3906 64.1211 18.4062C63.9805 18.4141 63.8594 18.4258 63.7578 18.4414C63.6406 18.457 63.5391 18.4688 63.4531 18.4766C63.3672 18.4844 63.2656 18.5 63.1484 18.5234C63.0469 18.5391 62.9219 18.5586 62.7734 18.582C62.625 18.6055 62.4531 18.6367 62.2578 18.6758C62.3047 18.6211 62.3477 18.5703 62.3867 18.5234C62.4258 18.4688 62.4609 18.4219 62.4922 18.3828C62.5234 18.3359 62.5547 18.293 62.5859 18.2539ZM64.3438 19.6484C64.2031 19.6562 64.0625 19.6914 63.9219 19.7539C63.7812 19.8086 63.6562 19.8906 63.5469 20C63.4375 20.1016 63.3438 20.2227 63.2656 20.3633C63.1953 20.4961 63.1602 20.6445 63.1602 20.8086C63.1602 20.9727 63.1992 21.1172 63.2773 21.2422C63.3633 21.3594 63.4727 21.457 63.6055 21.5352C63.7461 21.6133 63.8945 21.6602 64.0508 21.6758C64.2148 21.6914 64.375 21.6758 64.5312 21.6289C64.6797 21.5742 64.8203 21.4883 64.9531 21.3711C65.0859 21.2461 65.1992 21.1133 65.293 20.9727C65.3867 20.8242 65.4531 20.6797 65.4922 20.5391C65.5312 20.3906 65.5352 20.2695 65.5039 20.1758C65.4414 19.9727 65.3008 19.832 65.082 19.7539C64.8633 19.668 64.6172 19.6328 64.3438 19.6484ZM68.1523 17.7617L70.3086 17.7852C70.1836 18.2617 70.0898 18.668 70.0273 19.0039C69.9727 19.3398 69.9375 19.6211 69.9219 19.8477C69.8906 20.1055 69.8828 20.3242 69.8984 20.5039C69.9219 20.668 69.9609 20.8438 70.0156 21.0312C70.0625 21.1875 70.1328 21.3672 70.2266 21.5703C70.3203 21.7734 70.4453 21.9766 70.6016 22.1797C70.5078 22.1484 70.4062 22.125 70.2969 22.1094C70.1875 22.0938 70.0859 22.082 69.9922 22.0742C69.8828 22.0664 69.7734 22.0664 69.6641 22.0742C69.5547 22.082 69.4336 22.0938 69.3008 22.1094C69.1914 22.125 69.0586 22.1445 68.9023 22.168C68.7461 22.1914 68.582 22.2227 68.4102 22.2617C68.5273 21.9102 68.6172 21.6055 68.6797 21.3477C68.75 21.0898 68.8008 20.875 68.832 20.7031C68.8633 20.5 68.8828 20.3359 68.8906 20.2109C68.8906 20.0547 68.8906 19.8789 68.8906 19.6836C68.8906 19.4805 68.8906 19.2852 68.8906 19.0977C68.8906 18.9102 68.8867 18.7461 68.8789 18.6055C68.8711 18.457 68.8555 18.3633 68.832 18.3242L68.7148 18.207C68.668 18.168 68.5977 18.1133 68.5039 18.043C68.418 17.9648 68.3008 17.8711 68.1523 17.7617ZM68.9844 15.957C69.1484 15.8711 69.3125 15.8477 69.4766 15.8867C69.6484 15.9258 69.7812 16 69.875 16.1094C69.9688 16.2188 70 16.3477 69.9688 16.4961C69.9453 16.6445 69.8203 16.7891 69.5938 16.9297C69.3672 17.0625 69.168 17.1094 68.9961 17.0703C68.8242 17.0312 68.7031 16.9492 68.6328 16.8242C68.5625 16.6992 68.5508 16.5547 68.5977 16.3906C68.6445 16.2188 68.7734 16.0742 68.9844 15.957ZM71.293 23.3281C71.3711 23.2109 71.4336 23.1016 71.4805 23C71.5273 22.8984 71.5664 22.8125 71.5977 22.7422C71.6289 22.6562 71.6523 22.5781 71.668 22.5078C71.6758 22.4609 71.6797 22.3242 71.6797 22.0977C71.6797 21.8711 71.6719 21.5859 71.6562 21.2422C71.6484 20.8984 71.6367 20.5117 71.6211 20.082C71.6133 19.6523 71.5977 19.2148 71.5742 18.7695C71.5586 18.3242 71.5391 17.8906 71.5156 17.4688C71.5 17.0469 71.4844 16.668 71.4688 16.332C71.4531 15.9883 71.4375 15.707 71.4219 15.4883C71.4062 15.2695 71.3945 15.1445 71.3867 15.1133C71.3711 15.0664 71.3438 15.0195 71.3047 14.9727C71.2266 14.8789 71.0938 14.7891 70.9062 14.7031C71.3047 14.6016 71.6094 14.5195 71.8203 14.457C71.9453 14.4258 72.0547 14.3945 72.1484 14.3633C72.2344 14.332 72.3203 14.3008 72.4062 14.2695C72.4766 14.2383 72.5547 14.2031 72.6406 14.1641C72.7266 14.1172 72.8047 14.0664 72.875 14.0117C72.8359 14.2383 72.8047 14.457 72.7812 14.668C72.7578 14.8789 72.7383 15.0742 72.7227 15.2539C72.707 15.457 72.6992 15.6523 72.6992 15.8398C72.6602 16.2227 72.6367 16.6406 72.6289 17.0938C72.6289 17.5391 72.6328 17.9922 72.6406 18.4531C72.6484 18.9141 72.6641 19.3633 72.6875 19.8008C72.7109 20.2383 72.7344 20.6367 72.7578 20.9961C72.7891 21.3477 72.8164 21.6484 72.8398 21.8984C72.8711 22.1406 72.8945 22.2969 72.9102 22.3672C72.9414 22.4844 72.9727 22.5977 73.0039 22.707C73.0352 22.8008 73.0703 22.8984 73.1094 23C73.1484 23.1094 73.1953 23.1953 73.25 23.2578H72.1133C72.0117 23.2578 71.9141 23.2617 71.8203 23.2695C71.7344 23.2773 71.6445 23.2852 71.5508 23.293C71.457 23.3008 71.3711 23.3125 71.293 23.3281ZM77.5156 14.7734C77.6953 14.8203 77.8594 14.8555 78.0078 14.8789C78.1641 14.8945 78.2969 14.9062 78.4062 14.9141C78.5391 14.9219 78.6602 14.9258 78.7695 14.9258C78.8789 14.9258 79.0156 14.918 79.1797 14.9023C79.4688 14.8789 79.8789 14.8203 80.4102 14.7266C80.3242 14.7891 80.2422 14.8516 80.1641 14.9141C80.0938 14.9688 80.0312 15.0234 79.9766 15.0781L79.8008 15.2539C79.6992 15.3945 79.5977 15.6328 79.4961 15.9688C79.4102 16.2578 79.3164 16.6641 79.2148 17.1875C79.1211 17.7109 79.0352 18.4062 78.957 19.2734C79.3398 18.8984 79.6992 18.6172 80.0352 18.4297C80.3789 18.2344 80.6797 18.0938 80.9375 18.0078C81.2422 17.9141 81.5195 17.8633 81.7695 17.8555C82.0898 17.8789 82.3672 17.9453 82.6016 18.0547C82.8438 18.1562 83.0469 18.2812 83.2109 18.4297C83.3828 18.5703 83.5195 18.7188 83.6211 18.875C83.7305 19.0234 83.8125 19.1562 83.8672 19.2734C83.8984 19.3516 83.9219 19.4961 83.9375 19.707C83.9609 19.9102 83.9648 20.1445 83.9492 20.4102C83.9336 20.6758 83.8906 20.957 83.8203 21.2539C83.7578 21.543 83.6523 21.8125 83.5039 22.0625C83.3633 22.3047 83.1758 22.5078 82.9414 22.6719C82.7148 22.8359 82.4297 22.9258 82.0859 22.9414C81.6875 22.9414 81.3008 22.8945 80.9258 22.8008C80.6055 22.7227 80.2656 22.5859 79.9062 22.3906C79.5547 22.1875 79.2539 21.8984 79.0039 21.5234C79.0039 21.6172 79.0039 21.7109 79.0039 21.8047C79.0039 21.8906 79.0078 21.9648 79.0156 22.0273C79.0234 22.1133 79.0312 22.1875 79.0391 22.25C79.0469 22.3203 79.0664 22.3945 79.0977 22.4727C79.1211 22.5352 79.1562 22.6133 79.2031 22.707C79.2578 22.793 79.3281 22.8789 79.4141 22.9648C79.3281 22.957 79.2422 22.9531 79.1562 22.9531C79.0703 22.9453 78.9844 22.9453 78.8984 22.9531C78.8047 22.9609 78.7109 22.9688 78.6172 22.9766C78.5234 22.9844 78.4258 22.9961 78.3242 23.0117C78.2383 23.0273 78.1367 23.0469 78.0195 23.0703C77.9023 23.0938 77.7812 23.1211 77.6562 23.1523C77.6797 23.082 77.6992 22.9805 77.7148 22.8477C77.7305 22.707 77.7461 22.5547 77.7617 22.3906C77.7852 22.2188 77.8008 22.0391 77.8086 21.8516C77.8242 21.6641 77.8398 21.4766 77.8555 21.2891C77.8867 20.8594 77.9141 20.3906 77.9375 19.8828C77.9609 19.0938 77.9648 18.3594 77.9492 17.6797C77.9414 17.3906 77.9258 17.0977 77.9023 16.8008C77.8867 16.5039 77.8633 16.2266 77.832 15.9688C77.8008 15.7031 77.7578 15.4688 77.7031 15.2656C77.6562 15.0547 77.5938 14.8906 77.5156 14.7734ZM79.0391 20.4805C79.1641 20.707 79.2969 20.9023 79.4375 21.0664C79.5781 21.2227 79.7188 21.3555 79.8594 21.4648C80 21.5742 80.1367 21.6602 80.2695 21.7227C80.4102 21.7852 80.543 21.832 80.668 21.8633C80.957 21.9414 81.2422 21.9492 81.5234 21.8867C81.8047 21.8086 82.0234 21.6523 82.1797 21.418C82.3359 21.1836 82.457 20.918 82.543 20.6211C82.582 20.4805 82.6055 20.3008 82.6133 20.082C82.6289 19.8633 82.6055 19.6523 82.543 19.4492C82.4883 19.2383 82.3867 19.0547 82.2383 18.8984C82.0898 18.7344 81.875 18.6367 81.5938 18.6055C81.3984 18.6055 81.1719 18.6602 80.9141 18.7695C80.6875 18.8633 80.418 19.0195 80.1055 19.2383C79.793 19.4492 79.4375 19.7656 79.0391 20.1875V20.4805ZM84.3828 17.3867C84.5312 17.3945 84.6641 17.3984 84.7812 17.3984C84.9062 17.3906 85.0117 17.3828 85.0977 17.375C85.1992 17.3672 85.2891 17.3594 85.3672 17.3516C85.4844 17.3359 85.6055 17.3164 85.7305 17.293C85.8398 17.2773 85.9531 17.2578 86.0703 17.2344C86.1953 17.2031 86.3164 17.168 86.4336 17.1289C86.3867 17.2461 86.3477 17.3477 86.3164 17.4336C86.2852 17.5195 86.2617 17.5938 86.2461 17.6562C86.2227 17.7266 86.2109 17.7852 86.2109 17.832C86.2031 17.8867 86.1992 17.9531 86.1992 18.0312C86.1914 18.1641 86.1914 18.3789 86.1992 18.6758C86.6055 18.3242 86.9453 18.0508 87.2188 17.8555C87.5 17.6602 87.7227 17.5078 87.8867 17.3984C88.082 17.2734 88.2344 17.1914 88.3438 17.1523C88.6328 17.1055 88.8867 17.1719 89.1055 17.3516C89.1992 17.4297 89.2891 17.5352 89.375 17.668C89.4609 17.793 89.5352 17.9609 89.5977 18.1719C89.6602 18.3828 89.707 18.6367 89.7383 18.9336C89.7695 19.2227 89.7734 19.5703 89.75 19.9766C89.5859 19.9922 89.4375 20.0078 89.3047 20.0234C89.1797 20.0391 89.0742 20.0508 88.9883 20.0586C88.8867 20.0742 88.793 20.082 88.707 20.082L88.3906 20.1172C88.2812 20.1328 88.1445 20.1484 87.9805 20.1641C87.8242 20.1719 87.6328 20.1875 87.4062 20.2109C87.7344 19.9453 87.9453 19.7148 88.0391 19.5195C88.1406 19.3164 88.1836 19.1484 88.168 19.0156C88.1523 18.8672 88.082 18.7383 87.957 18.6289C87.8086 18.543 87.6484 18.5117 87.4766 18.5352C87.3281 18.5508 87.1562 18.6172 86.9609 18.7344C86.7656 18.8516 86.5586 19.0703 86.3398 19.3906C86.3555 19.8906 86.3711 20.3047 86.3867 20.6328C86.4102 20.9609 86.4297 21.2266 86.4453 21.4297C86.4688 21.6641 86.4883 21.8477 86.5039 21.9805C86.5273 22.0977 86.5742 22.2227 86.6445 22.3555C86.6992 22.4648 86.7773 22.5859 86.8789 22.7188C86.9805 22.8516 87.1133 22.9844 87.2773 23.1172C86.9336 23.1016 86.6523 23.1016 86.4336 23.1172C86.3008 23.125 86.1836 23.1328 86.082 23.1406C85.9727 23.1562 85.8555 23.1719 85.7305 23.1875C85.6211 23.2031 85.4922 23.2188 85.3438 23.2344C85.2031 23.2578 85.0469 23.2812 84.875 23.3047C84.9375 23.2188 84.9883 23.1172 85.0273 23C85.0664 22.8906 85.0977 22.7852 85.1211 22.6836C85.1523 22.5664 85.1758 22.4453 85.1914 22.3203C85.1992 22.2109 85.2031 22.0469 85.2031 21.8281C85.2109 21.6094 85.207 21.3633 85.1914 21.0898C85.1836 20.8086 85.1719 20.5195 85.1562 20.2227C85.1406 19.918 85.1211 19.6328 85.0977 19.3672C85.0742 19.1016 85.0469 18.8711 85.0156 18.6758C84.9922 18.4727 84.9648 18.332 84.9336 18.2539C84.8945 18.1602 84.8477 18.0664 84.793 17.9727C84.7461 17.8867 84.6875 17.7969 84.6172 17.7031C84.5469 17.6016 84.4688 17.4961 84.3828 17.3867ZM91.1211 18.2539C91.1602 18.207 91.1836 18.1211 91.1914 17.9961C91.207 17.8633 91.2383 17.7148 91.2852 17.5508C91.3398 17.3867 91.4297 17.2148 91.5547 17.0352C91.6797 16.8555 91.8828 16.6875 92.1641 16.5312C92.4375 16.375 92.7031 16.2812 92.9609 16.25C93.2188 16.2188 93.4648 16.2305 93.6992 16.2852C93.9336 16.3398 94.1523 16.4258 94.3555 16.543C94.5664 16.6602 94.7578 16.7891 94.9297 16.9297C95.0469 17.0234 95.1406 17.1602 95.2109 17.3398C95.2812 17.5117 95.3359 17.707 95.375 17.9258C95.4141 18.1445 95.4414 18.375 95.457 18.6172C95.4805 18.8516 95.4961 19.082 95.5039 19.3086C95.5117 19.5273 95.5156 19.7305 95.5156 19.918C95.5234 20.0977 95.5391 20.2461 95.5625 20.3633C95.5938 20.5352 95.6484 20.6836 95.7266 20.8086C95.8047 20.9258 95.8906 21.0273 95.9844 21.1133C96.0781 21.1914 96.1719 21.2539 96.2656 21.3008C96.3594 21.3477 96.4414 21.3828 96.5117 21.4062C96.5586 21.4297 96.6016 21.4453 96.6406 21.4531C96.7188 21.4844 96.7734 21.4844 96.8047 21.4531C96.7578 21.5625 96.7148 21.6562 96.6758 21.7344C96.6367 21.8125 96.6055 21.8789 96.582 21.9336C96.5508 21.9961 96.5234 22.0469 96.5 22.0859C96.4766 22.1328 96.4492 22.1758 96.418 22.2148C96.3945 22.2539 96.3633 22.2969 96.3242 22.3438C96.2852 22.3906 96.2461 22.4414 96.207 22.4961C96.1055 22.457 96.0078 22.4102 95.9141 22.3555C95.8281 22.3008 95.75 22.25 95.6797 22.2031C95.5938 22.1484 95.5156 22.0938 95.4453 22.0391C95.375 21.9844 95.3086 21.9219 95.2461 21.8516C95.1914 21.7891 95.1328 21.7227 95.0703 21.6523C95.0156 21.582 94.9688 21.5039 94.9297 21.418C94.8828 21.5195 94.7695 21.6641 94.5898 21.8516C94.418 22.0391 94.1914 22.2109 93.9102 22.3672C93.6289 22.5156 93.3008 22.6211 92.9258 22.6836C92.5586 22.7461 92.1523 22.7031 91.707 22.5547C91.5117 22.4922 91.3281 22.4023 91.1562 22.2852C90.9844 22.1602 90.8359 22.0117 90.7109 21.8398C90.5938 21.668 90.5078 21.4727 90.4531 21.2539C90.4062 21.0273 90.4102 20.7773 90.4648 20.5039C90.5195 20.2305 90.6172 20 90.7578 19.8125C90.8984 19.625 91.0664 19.4727 91.2617 19.3555C91.457 19.2383 91.6758 19.1484 91.918 19.0859C92.1602 19.0234 92.4102 18.9805 92.668 18.957C92.8711 18.9492 93.0742 18.9609 93.2773 18.9922C93.4492 19.0234 93.6289 19.082 93.8164 19.168C94.0039 19.2461 94.1641 19.3672 94.2969 19.5312C94.2891 19.1172 94.2734 18.7891 94.25 18.5469C94.2344 18.2969 94.2188 18.1055 94.2031 17.9727C94.1719 17.8164 94.1445 17.707 94.1211 17.6445C94.082 17.5898 94.0391 17.5273 93.9922 17.457C93.9531 17.3867 93.9023 17.3242 93.8398 17.2695C93.7773 17.207 93.6992 17.1562 93.6055 17.1172C93.5117 17.0781 93.4023 17.0625 93.2773 17.0703C93.1445 17.0781 93.0391 17.1133 92.9609 17.1758C92.8828 17.2383 92.8203 17.3125 92.7734 17.3984C92.7344 17.4766 92.7109 17.5625 92.7031 17.6562C92.6953 17.75 92.6992 17.832 92.7148 17.9023C92.7305 17.9492 92.7539 18 92.7852 18.0547C92.8164 18.1016 92.8594 18.1523 92.9141 18.207C92.9688 18.2617 93.043 18.3086 93.1367 18.3477C92.957 18.3711 92.7969 18.3906 92.6562 18.4062C92.5156 18.4141 92.3945 18.4258 92.293 18.4414C92.1758 18.457 92.0742 18.4688 91.9883 18.4766C91.9023 18.4844 91.8008 18.5 91.6836 18.5234C91.582 18.5391 91.457 18.5586 91.3086 18.582C91.1602 18.6055 90.9883 18.6367 90.793 18.6758C90.8398 18.6211 90.8828 18.5703 90.9219 18.5234C90.9609 18.4688 90.9961 18.4219 91.0273 18.3828C91.0586 18.3359 91.0898 18.293 91.1211 18.2539ZM92.8789 19.6484C92.7383 19.6562 92.5977 19.6914 92.457 19.7539C92.3164 19.8086 92.1914 19.8906 92.082 20C91.9727 20.1016 91.8789 20.2227 91.8008 20.3633C91.7305 20.4961 91.6953 20.6445 91.6953 20.8086C91.6953 20.9727 91.7344 21.1172 91.8125 21.2422C91.8984 21.3594 92.0078 21.457 92.1406 21.5352C92.2812 21.6133 92.4297 21.6602 92.5859 21.6758C92.75 21.6914 92.9102 21.6758 93.0664 21.6289C93.2148 21.5742 93.3555 21.4883 93.4883 21.3711C93.6211 21.2461 93.7344 21.1133 93.8281 20.9727C93.9219 20.8242 93.9883 20.6797 94.0273 20.5391C94.0664 20.3906 94.0703 20.2695 94.0391 20.1758C93.9766 19.9727 93.8359 19.832 93.6172 19.7539C93.3984 19.668 93.1523 19.6328 92.8789 19.6484ZM97.0508 21.7109C97.1055 21.4531 97.1445 21.2266 97.168 21.0312C97.1992 20.8281 97.2227 20.6602 97.2383 20.5273C97.2539 20.3711 97.2617 20.2383 97.2617 20.1289C97.2539 19.9961 97.2461 19.8398 97.2383 19.6602C97.2383 19.4727 97.2305 19.2891 97.2148 19.1094C97.207 18.9219 97.1953 18.7578 97.1797 18.6172C97.1641 18.4688 97.1445 18.3633 97.1211 18.3008C97.0898 18.2383 97.0469 18.1719 96.9922 18.1016C96.8828 17.9688 96.7227 17.8398 96.5117 17.7148C96.6914 17.6758 96.8438 17.6445 96.9688 17.6211C97.1016 17.5898 97.2109 17.5625 97.2969 17.5391C97.3906 17.5078 97.4727 17.4805 97.543 17.457C97.6055 17.4336 97.6797 17.4102 97.7656 17.3867C97.8359 17.3711 97.9219 17.3516 98.0234 17.3281C98.125 17.3047 98.2422 17.2773 98.375 17.2461L98.3398 18.3125C98.5898 18.0156 98.8438 17.793 99.1016 17.6445C99.3594 17.4961 99.6016 17.3906 99.8281 17.3281C100.086 17.25 100.34 17.2109 100.59 17.2109C100.902 17.2266 101.191 17.2773 101.457 17.3633C101.73 17.4492 101.965 17.5508 102.16 17.668C102.363 17.7773 102.527 17.8945 102.652 18.0195C102.777 18.1445 102.852 18.2539 102.875 18.3477C102.969 18.6523 102.992 18.9336 102.945 19.1914C102.898 19.4414 102.836 19.6875 102.758 19.9297C102.688 20.1641 102.625 20.3984 102.57 20.6328C102.523 20.8672 102.543 21.1211 102.629 21.3945C102.66 21.4648 102.691 21.5352 102.723 21.6055C102.754 21.668 102.793 21.7305 102.84 21.793C102.887 21.8555 102.941 21.9062 103.004 21.9453C102.918 21.9375 102.832 21.9336 102.746 21.9336C102.66 21.9258 102.582 21.918 102.512 21.9102C102.426 21.9023 102.348 21.8945 102.277 21.8867C102.199 21.8789 102.094 21.875 101.961 21.875C101.734 21.875 101.383 21.8867 100.906 21.9102C100.977 21.7461 101.031 21.6094 101.07 21.5C101.117 21.3828 101.156 21.2891 101.188 21.2188C101.219 21.1328 101.242 21.0664 101.258 21.0195C101.352 20.793 101.406 20.5352 101.422 20.2461C101.445 19.957 101.426 19.6641 101.363 19.3672C101.34 19.2656 101.301 19.1445 101.246 19.0039C101.191 18.8633 101.117 18.7266 101.023 18.5938C100.938 18.4609 100.832 18.3477 100.707 18.2539C100.59 18.1602 100.453 18.1055 100.297 18.0898C100.141 18.0742 99.9648 18.1133 99.7695 18.207C99.582 18.3008 99.3789 18.4727 99.1602 18.7227C98.9961 18.9336 98.8672 19.1914 98.7734 19.4961C98.6875 19.7539 98.6289 20.0781 98.5977 20.4688C98.5664 20.8516 98.6133 21.3008 98.7383 21.8164C98.6289 21.8008 98.5273 21.793 98.4336 21.793C98.3398 21.7852 98.2617 21.7773 98.1992 21.7695C98.1211 21.7617 98.0508 21.7539 97.9883 21.7461C97.918 21.7461 97.8398 21.7422 97.7539 21.7344C97.6758 21.7344 97.5781 21.7344 97.4609 21.7344C97.3438 21.7266 97.207 21.7188 97.0508 21.7109ZM109.355 14.0234C109.504 14.0312 109.664 14.0352 109.836 14.0352C109.984 14.0352 110.152 14.0391 110.34 14.0469C110.535 14.0469 110.738 14.0391 110.949 14.0234C110.762 14.1094 110.598 14.2344 110.457 14.3984C110.316 14.5625 110.203 14.7266 110.117 14.8906C110.008 15.0859 109.918 15.2891 109.848 15.5C109.809 15.625 109.777 15.8477 109.754 16.168C109.73 16.4805 109.711 16.8477 109.695 17.2695C109.688 17.6914 109.684 18.1367 109.684 18.6055C109.684 19.0742 109.688 19.5234 109.695 19.9531C109.703 20.375 109.715 20.75 109.73 21.0781C109.746 21.4062 109.766 21.6367 109.789 21.7695C109.82 21.9258 109.859 22.0742 109.906 22.2148C109.945 22.3398 109.996 22.4688 110.059 22.6016C110.121 22.7266 110.199 22.8281 110.293 22.9062L109.098 23.4453C109.035 23.3594 108.984 23.2695 108.945 23.1758C108.906 23.0898 108.875 23.0117 108.852 22.9414C108.82 22.8555 108.801 22.7773 108.793 22.707C108.777 22.6133 108.762 22.5117 108.746 22.4023C108.73 22.2852 108.711 22.1758 108.688 22.0742C108.672 21.9648 108.66 21.875 108.652 21.8047C108.645 21.7344 108.645 21.6914 108.652 21.6758C108.66 21.6602 108.613 21.7305 108.512 21.8867C108.41 22.0352 108.258 22.2109 108.055 22.4141C107.859 22.6094 107.617 22.8008 107.328 22.9883C107.039 23.168 106.715 23.2812 106.355 23.3281C105.988 23.375 105.648 23.3047 105.336 23.1172C105.031 22.9297 104.77 22.668 104.551 22.332C104.332 21.9883 104.164 21.5938 104.047 21.1484C103.938 20.6953 103.895 20.2344 103.918 19.7656C103.934 19.4531 104.004 19.1758 104.129 18.9336C104.254 18.6836 104.41 18.4688 104.598 18.2891C104.793 18.1016 105.004 17.9453 105.23 17.8203C105.465 17.6875 105.691 17.5781 105.91 17.4922C106.137 17.4062 106.348 17.3438 106.543 17.3047C106.738 17.2656 106.895 17.2383 107.012 17.2227C107.152 17.2148 107.312 17.2383 107.492 17.293C107.648 17.3398 107.828 17.418 108.031 17.5273C108.242 17.6367 108.477 17.8008 108.734 18.0195C108.688 17.2383 108.645 16.6133 108.605 16.1445C108.566 15.668 108.527 15.3047 108.488 15.0547C108.449 14.7578 108.414 14.5547 108.383 14.4453C108.344 14.3672 108.293 14.2891 108.23 14.2109C108.176 14.1484 108.105 14.0859 108.02 14.0234C107.941 13.9531 107.848 13.8984 107.738 13.8594C107.941 13.8984 108.137 13.9258 108.324 13.9414C108.512 13.957 108.684 13.9727 108.84 13.9883C109.02 14.0039 109.191 14.0156 109.355 14.0234ZM106.414 18.3945C106.266 18.4492 106.145 18.543 106.051 18.6758C105.965 18.8086 105.895 18.9688 105.84 19.1562C105.785 19.3359 105.746 19.5312 105.723 19.7422C105.707 19.9453 105.695 20.1445 105.688 20.3398C105.688 20.5273 105.688 20.6992 105.688 20.8555C105.688 21.0117 105.688 21.1289 105.688 21.207C105.688 21.2539 105.695 21.3398 105.711 21.4648C105.734 21.582 105.781 21.707 105.852 21.8398C105.922 21.9648 106.02 22.0781 106.145 22.1797C106.277 22.2812 106.453 22.332 106.672 22.332C106.852 22.3164 107.043 22.2539 107.246 22.1445C107.426 22.0508 107.629 21.9023 107.855 21.6992C108.09 21.4883 108.34 21.1875 108.605 20.7969C108.59 20.5469 108.578 20.3398 108.57 20.1758C108.57 20.0117 108.566 19.8789 108.559 19.7773C108.551 19.6602 108.547 19.5664 108.547 19.4961V19.3203C108.547 19.2734 108.547 19.2227 108.547 19.168C108.547 19.1133 108.551 19.0625 108.559 19.0156C108.34 18.8594 108.145 18.7266 107.973 18.6172C107.809 18.5 107.645 18.4141 107.48 18.3594C107.324 18.2969 107.16 18.2695 106.988 18.2773C106.824 18.2773 106.633 18.3164 106.414 18.3945Z" fill="black"/>
</svg>
